<svg xmlns="http://www.w3.org/2000/svg" width="22" height="18" viewBox="0 0 22 18">
    <g fill="#666" fill-rule="evenodd">
        <path d="M13.005 13.378c-.724-.423-2.362-.758-2.636-.916-.47-.27-.967-.78-.927-1.37.018-.257.038-.465.265-.608.043-.027.072-.076.108-.115.521-.572.836-1.25.998-2.024.236-.016.36-.172.443-.36.285-.641.311-1.296.084-1.962a.356.356 0 0 1-.001-.202c.144-.482.299-.961.44-1.444a.351.351 0 0 0-.02-.236c-.26-.513-.506-1.037-.802-1.529-.41-.682-.913-1.29-1.572-1.744C8.54.287 7.651.188 6.718.642c-.385.19-.724.446-1.046.729-.08.07-.185.113-.282.16-.295.143-.612.25-.882.429-.738.488-1.08 1.196-.939 2.089.075.47.228.93.369 1.386.061.2.08.347-.013.563-.289.677-.24 1.369.078 2.033.082.173.21.305.42.315.196.926.61 1.716 1.317 2.334.03.026.045.084.046.128.005.187 0 .374.003.56a.73.73 0 0 1-.187.527c-.132.14-.278.274-.437.38-.067.043-.188.11-.338.187-.61.262-1.555.425-2.248.769C.823 14.09 0 14.633 0 16.164 0 17.499 4.073 17.5 7.507 17.5l.431-.001c4.053 0 7.293 0 7.293-1.365 0-1.152-.492-1.744-2.226-2.756z"/>
        <path d="M20.516 12.249c-.483-.275-1.575-.493-1.757-.595-.314-.176-.645-.508-.618-.89.012-.168.025-.303.176-.396.03-.017.048-.049.072-.075.348-.371.558-.812.666-1.315.157-.01.24-.112.295-.234a1.65 1.65 0 0 0 .056-1.275.226.226 0 0 1 0-.132c.096-.313.199-.625.293-.939a.223.223 0 0 0-.014-.153c-.173-.334-.337-.674-.534-.993-.273-.444-.609-.84-1.048-1.134-.564-.378-1.156-.443-1.778-.147-.257.123-.483.29-.698.474-.053.045-.123.073-.188.104-.196.093-.407.162-.588.279-.491.317-.72.777-.626 1.357.05.306.153.604.246.901.041.13.053.226-.008.366-.193.44-.16.89.052 1.322.054.112.14.198.28.204.13.602.406 1.116.878 1.517.02.017.03.055.03.084.004.121 0 .243.002.364a.468.468 0 0 1-.124.342 1.674 1.674 0 0 1-.292.247 2.998 2.998 0 0 1-.225.122c-.406.17-1.036.276-1.498.5-.327.156-.39.112-.621.255 1.28.592 2.344 1.305 2.944 2.519.31.028.518 0 .962 0h.287c2.702 0 4.862 0 4.862-.888 0-.748-.328-1.133-1.484-1.791zM4.109 9.185c.422.662 2.421 2.417 3.368 2.417.946 0 2.946-1.755 3.367-2.417.383-.6 2.489-8.14-3.367-8.14s-3.75 7.54-3.368 8.14zM2.977 5.654c.307-.108.697.263.873.83.175.566.067 1.113-.24 1.22-.307.108-.698-.264-.873-.83-.175-.566-.068-1.113.24-1.22"/>
        <path d="M12.2 6.874c-.174.567-.565.94-.872.83-.307-.107-.415-.654-.24-1.22.175-.567.566-.938.873-.83.307.107.415.654.24 1.22z"/>
    </g>
</svg>
